<svg width="16" height="18" viewBox="0 0 16 18" fill="none" xmlns="http://www.w3.org/2000/svg">
<path d="M9.99269 8.04999C10.2718 7.66579 10.4392 7.2119 10.4764 6.73849C10.5137 6.26508 10.4193 5.7906 10.2037 5.36749C9.98805 4.94439 9.65964 4.58914 9.25475 4.34103C8.84985 4.09292 8.38422 3.9616 7.90935 3.9616C7.43448 3.9616 6.96886 4.09292 6.56396 4.34103C6.15906 4.58914 5.83066 4.94439 5.61506 5.36749C5.39945 5.7906 5.30505 6.26508 5.34228 6.73849C5.37951 7.2119 5.54693 7.66579 5.82602 8.04999C5.472 8.27561 5.15681 8.55703 4.89269 8.88333C4.82374 8.97252 4.77304 9.07441 4.74348 9.1832C4.71391 9.29198 4.70606 9.40552 4.72038 9.51734C4.73469 9.62916 4.77089 9.73706 4.82691 9.83489C4.88293 9.93271 4.95766 10.0185 5.04685 10.0875C5.13604 10.1564 5.23794 10.2071 5.34672 10.2367C5.45551 10.2663 5.56905 10.2741 5.68087 10.2598C5.79268 10.2455 5.90059 10.2093 5.99841 10.1533C6.09624 10.0973 6.18208 10.0225 6.25102 9.93333C6.45454 9.67464 6.71391 9.46531 7.00974 9.321C7.30558 9.17669 7.6302 9.10114 7.95935 9.09999C8.2885 9.10114 8.61313 9.17669 8.90896 9.321C9.20479 9.46531 9.46417 9.67464 9.66769 9.93333C9.74612 10.03 9.84522 10.1079 9.9577 10.1612C10.0702 10.2146 10.1932 10.2421 10.3177 10.2417C10.4739 10.2409 10.6268 10.1963 10.7589 10.1129C10.8909 10.0295 10.9969 9.91061 11.0647 9.76985C11.1325 9.62909 11.1593 9.47212 11.1422 9.31684C11.125 9.16156 11.0645 9.01423 10.9677 8.89166C10.6917 8.5589 10.3622 8.27444 9.99269 8.04999ZM7.91769 7.44166C7.73948 7.44154 7.56525 7.389 7.41668 7.29059C7.26811 7.19218 7.15178 7.05224 7.08215 6.88819C7.01253 6.72415 6.9927 6.54325 7.02513 6.36802C7.05756 6.19279 7.14082 6.03097 7.26454 5.90271C7.38826 5.77445 7.54698 5.68542 7.72093 5.6467C7.89487 5.60797 8.07637 5.62127 8.24281 5.68494C8.40926 5.74861 8.5533 5.85983 8.657 6.00475C8.7607 6.14968 8.81948 6.32191 8.82602 6.49999C8.8305 6.62205 8.81032 6.74376 8.76669 6.85784C8.72305 6.97192 8.65685 7.07603 8.57205 7.16394C8.48726 7.25185 8.3856 7.32175 8.27317 7.36947C8.16073 7.41719 8.03983 7.44174 7.91769 7.44166ZM14.9677 7.02499C14.8507 5.80742 14.4204 4.64089 13.7187 3.63901C13.017 2.63712 12.0678 1.83402 10.9635 1.3079C9.85926 0.781789 8.63759 0.550593 7.41745 0.636829C6.19731 0.723065 5.0203 1.12379 4.00102 1.79999C3.12535 2.38553 2.39023 3.15774 1.84847 4.06115C1.30671 4.96456 0.971765 5.97675 0.867686 7.02499C0.765588 8.06637 0.896581 9.11742 1.25116 10.1019C1.60574 11.0864 2.17502 11.9795 2.91769 12.7167L7.33435 17.1417C7.41182 17.2198 7.50399 17.2818 7.60554 17.3241C7.70709 17.3664 7.81601 17.3882 7.92602 17.3882C8.03603 17.3882 8.14495 17.3664 8.2465 17.3241C8.34805 17.2818 8.44022 17.2198 8.51769 17.1417L12.9177 12.7167C13.6604 11.9795 14.2296 11.0864 14.5842 10.1019C14.9388 9.11742 15.0698 8.06637 14.9677 7.02499ZM11.751 11.5417L7.91769 15.375L4.08435 11.5417C3.51943 10.9767 3.08669 10.2936 2.81724 9.54146C2.5478 8.78932 2.44834 7.98682 2.52602 7.19166C2.6042 6.38425 2.86082 5.60429 3.27733 4.9082C3.69383 4.2121 4.25982 3.61725 4.93435 3.16666C5.81847 2.57936 6.85628 2.26607 7.91769 2.26607C8.9791 2.26607 10.0169 2.57936 10.901 3.16666C11.5735 3.61551 12.1382 4.20773 12.5547 4.90077C12.9711 5.59382 13.2288 6.37049 13.3094 7.17499C13.3896 7.97285 13.2914 8.77856 13.0218 9.53378C12.7523 10.289 12.3182 10.9749 11.751 11.5417Z" fill="#4B3786"/>
</svg>
