<svg width="117" height="40" viewBox="0 0 117 40" fill="none" xmlns="http://www.w3.org/2000/svg">
<path d="M14.5727 8.16239C11.5385 8.16239 9.27351 9.01709 7.73504 10.8547V8.54701H0V40H8.11966V29.6581C9.70086 31.2821 11.8803 32.094 14.5727 32.094C20.8547 32.094 25.9402 27.4786 25.9402 20.1282C25.9402 12.7778 20.8547 8.16239 14.5727 8.16239ZM12.8632 25.641C10.1282 25.641 7.99145 23.6325 7.99145 20.1282C7.99145 16.6239 10.1282 14.6154 12.8632 14.6154C15.5983 14.6154 17.735 16.6239 17.735 20.1282C17.735 23.6325 15.5983 25.641 12.8632 25.641Z" fill="#4B3786"/>
<path d="M34.3844 8.16239C30.7519 8.16239 26.8202 9.10256 24.1707 10.8547L26.9057 16.3675C28.4869 15.1282 30.9655 14.359 33.1878 14.359C36.3929 14.359 37.9741 15.6838 38.1023 18.0342H33.4869C26.3074 18.0342 23.1878 20.6838 23.1878 24.9573C23.1878 28.9744 26.2647 32.094 31.8202 32.094C35.1963 32.094 37.504 30.9402 38.6579 28.7179V31.7094H46.222V18.8462C46.222 11.4957 41.9057 8.16239 34.3844 8.16239ZM34.0852 26.9658C32.1621 26.9658 31.051 25.9829 31.051 24.6154C31.051 23.2051 31.9912 22.265 34.598 22.265H38.1023V24.2735C37.4613 26.1111 35.8801 26.9658 34.0852 26.9658Z" fill="#4B3786"/>
<path d="M58.8178 32.094C64.0742 32.094 68.0913 29.7436 69.6725 25.7265L63.3904 22.5214C62.2793 24.7009 60.6554 25.641 58.775 25.641C55.9545 25.641 53.7323 23.6752 53.7323 20.0855C53.7323 16.5812 55.9545 14.6154 58.775 14.6154C60.6554 14.6154 62.2793 15.5556 63.3904 17.735L69.6725 14.5299C68.0913 10.5128 64.0742 8.16239 58.8178 8.16239C51.04 8.16239 45.5272 13.1197 45.5272 20.0855C45.5272 27.1368 51.04 32.094 58.8178 32.094Z" fill="#4B3786"/>
<path d="M84.9539 31.7094H94.783L84.3556 18.4615L93.971 8.54701H84.3556L76.065 16.6239V0H67.9454V31.7094H76.065V26.0256L78.4582 23.5897L84.9539 31.7094Z" fill="#4B3786"/>
<path d="M116.918 19.6901C116.918 26.3282 111.536 31.7094 104.898 31.7094C98.2603 31.7094 92.8792 26.3282 92.8792 19.6901C92.8792 13.0521 98.2603 7.6709 104.898 7.6709C111.536 7.6709 116.918 13.0521 116.918 19.6901Z" fill="#E9AF53"/>
</svg>
